<svg xmlns="http://www.w3.org/2000/svg" xml:space="preserve" width="1500" height="180" data-id="lg_JE0sae2vdzG1vEBcqk" data-version="1" viewBox="0 0 1500 180"><g data-padding="20"><g transform="translate(10 7.171)scale(.92032)"><rect width="250.785" height="47.46" x="278.177" y="-291.422" fill="none" rx="0" ry="0" transform="translate(400.5 424.11)"/><path fill="#f7fff7" d="M700.06 138.868h7.56l-5.29 30.24h-7.6l-5.3-16.55-2.85 16.55h-7.6l5.33-30.24h7.81l5.21 15.46Zm30.45 23.69-1.18 6.55h-21.08l5.33-30.24h21.09l-1.18 6.55h-13.52l-.97 5.67h11.17l-1.17 6.56h-11.17l-.84 4.91Zm34.77-23.69-1.18 6.55h-10.33l-4.16 23.69h-7.6l4.16-23.69h-10.38l1.18-6.55Zm19.96 12.6-1.14 6.55h-11.17l-1.93 11.09h-7.6l5.33-30.24h21.08l-1.17 6.55h-13.53l-1.05 6.05Zm8.76-12.6h7.56l-5.29 30.24h-7.6Zm29.29 0h7.56l-5.29 30.24h-7.61l-5.29-16.55-2.85 16.55h-7.61l5.34-30.24h7.81l5.21 15.46Zm13.51 0h11.76q5.5 0 7.86 2.77 1.72 2.1 1.72 5.25 0 1.14-.21 2.4l-1.64 9.36q-.84 4.75-4.12 7.61-3.27 2.85-8.48 2.85h-12.22Zm9.12 6.55h-2.73l-2.99 17.14h3.99q1.98 0 3.09-1.07t1.53-3.51l1.22-6.89q.17-.92.17-1.68 0-3.99-4.28-3.99m35.91 17.14-1.18 6.55h-21.08l5.33-30.24h21.08l-1.17 6.55h-13.53l-.96 5.67h11.17l-1.18 6.56h-11.17l-.84 4.91Zm8.98-23.69h12.18q4.79 0 6.81 2.1 1.51 1.6 1.51 4.03 0 .84-.17 1.77l-.59 3.27q-.5 2.73-1.74 4.41t-2.75 2.4l3.82 12.26h-8.48l-3.53-11.3h-2.6l-1.73 11.3h-8.06Zm9.54 6.55h-3.15l-1.09 7.31h2.94q2.22 0 3.19-1.07.96-1.07.96-2.83 0-3.41-2.85-3.41M793.01 22.98c7.007 3.767 5.38 26.674 1.4 39.652l18.522 19.681 28.45 31.374s-6.173 8.594-12.007 2.344-25.011-26.019-25.011-26.019l-25.73-22.793s-2.746-1.437-2.734-4.587c0-3.15 1.084-24.822.278-31.386 0 0 1.814-1.26 4.473.315 0 0 1.663-3.352-16.632-13.054L744.085 8.073s-3.288-2.079-1.587-5.695c1.575-3.364 5.24-2.67 6.438-1.852s16.48 8.517 16.48 8.517m88.882 82.82a11.642 11.642 0 1 0 0 23.285 11.642 11.642 0 1 0 0-23.285m-67.184-10.042s-2.583 5.52-6.048 6.161c-3.465.643-41.076-.844-41.076-.844s-1.033-9.992 5.746-9.992 27.14-.478 27.14-.478l4.133-4.36Z"/><path fill="#f7fff7" d="M772.435 49.603v10.508l-4.032 3.2s-4.473 2.987-7.106-1.675c-1.537-3.528 2.23-6.099 3.15-6.842s7.988-5.19 7.988-5.19m31.337-23.349s-3.402 1.865-4.6-1.386c-.78-2.52-1.915-4.41-3.527-5.292l-2.03-1.02-.327-.164-1.008-.504 4.499-11.643s3.502-6.88 11.88-.995c3.794 3.465 3.58 6.438 2.786 10.42-1.084 5.494-7.673 10.584-7.673 10.584"/></g><path fill="transparent" stroke="transparent" d="M624.5 0h251v180h-251z"/></g></svg>